<?xml version="1.0" standalone="no"?>
<!DOCTYPE svg PUBLIC "-//W3C//DTD SVG 20010904//EN"
 "http://www.w3.org/TR/2001/REC-SVG-20010904/DTD/svg10.dtd">
<svg version="1.0" xmlns="http://www.w3.org/2000/svg"
 width="888.000000pt" height="888.000000pt" viewBox="0 0 888.000000 888.000000"
 preserveAspectRatio="xMidYMid meet">
<metadata>
Created by potrace 1.11, written by Peter Selinger 2001-2013
</metadata>
<g transform="translate(0.000000,888.000000) scale(0.100000,-0.100000)"
fill="#000000" stroke="none">
<path d="M8797 8463 c-1 -1 -43 -4 -92 -8 -50 -3 -106 -8 -125 -10 -19 -3 -64
-7 -100 -10 -198 -16 -283 -24 -350 -30 -25 -2 -76 -7 -115 -10 -38 -3 -90 -8
-115 -11 -25 -2 -76 -7 -115 -10 -38 -3 -86 -7 -105 -9 -19 -2 -73 -6 -120
-10 -47 -4 -98 -8 -115 -10 -16 -1 -66 -6 -110 -9 -44 -4 -93 -9 -110 -11 -16
-2 -70 -7 -120 -10 -49 -3 -101 -8 -115 -10 -14 -2 -63 -7 -110 -10 -47 -3
-101 -8 -120 -10 -19 -2 -71 -7 -115 -10 -44 -3 -91 -8 -105 -10 -14 -2 -65
-7 -115 -10 -49 -4 -103 -8 -120 -10 -28 -2 -79 -7 -240 -21 -33 -3 -80 -7
-105 -9 -25 -3 -74 -7 -110 -10 -36 -3 -87 -7 -115 -10 -27 -2 -106 -9 -175
-15 -69 -6 -145 -13 -170 -15 -25 -3 -76 -7 -115 -10 -38 -3 -90 -7 -115 -10
-25 -2 -79 -7 -120 -10 -41 -3 -86 -7 -100 -10 -14 -2 -65 -7 -115 -10 -49 -4
-106 -8 -125 -10 -19 -2 -69 -6 -110 -10 -41 -4 -91 -8 -110 -10 -19 -2 -78
-7 -130 -10 -52 -4 -102 -8 -110 -10 -9 -2 -56 -6 -106 -10 -49 -3 -100 -8
-114 -10 -14 -3 -63 -7 -110 -11 -47 -3 -101 -7 -120 -9 -19 -2 -71 -6 -115
-10 -44 -3 -96 -8 -115 -10 -19 -2 -69 -7 -110 -10 -130 -11 -174 -15 -230
-20 -30 -3 -80 -8 -110 -10 -30 -2 -82 -6 -115 -9 -127 -12 -163 -15 -240 -22
-44 -3 -96 -8 -115 -9 -19 -2 -73 -7 -120 -10 -47 -4 -92 -9 -101 -10 -9 -2
-61 -6 -115 -10 -55 -4 -110 -8 -124 -10 -14 -2 -59 -7 -100 -10 -111 -9 -169
-14 -230 -19 -30 -3 -82 -8 -115 -11 -33 -3 -86 -7 -117 -10 -62 -5 -122 -11
-233 -20 -38 -3 -86 -8 -105 -10 -19 -2 -73 -7 -120 -10 -47 -3 -101 -8 -120
-10 -19 -2 -71 -7 -115 -11 -44 -4 -93 -8 -110 -10 -16 -1 -68 -6 -115 -9 -47
-3 -96 -8 -110 -10 -14 -2 -65 -7 -115 -10 -49 -3 -106 -8 -125 -10 -19 -3
-62 -7 -95 -9 -33 -3 -94 -8 -135 -12 -41 -4 -85 -7 -97 -7 l-23 -1 0 -2854 0
-2855 93 7 c50 4 108 9 127 11 19 2 71 6 115 10 44 3 91 8 105 10 14 2 66 6
115 10 50 3 106 8 125 10 50 6 134 13 220 20 41 4 95 8 120 10 25 3 74 7 110
10 36 3 85 7 110 10 25 2 79 7 120 10 41 3 91 8 110 10 19 2 71 6 115 10 44 3
94 8 110 10 17 2 71 7 120 10 50 3 106 8 125 10 36 5 109 11 220 20 36 3 85 7
110 10 25 2 77 7 115 10 83 7 163 14 225 20 25 3 77 7 115 10 39 3 88 7 110 9
22 3 78 7 125 11 47 3 101 8 120 10 43 5 118 12 280 25 69 6 134 12 145 15 20
4 81 -41 310 -230 45 -36 428 -349 490 -400 325 -265 741 -604 855 -697 80
-66 152 -124 160 -131 8 -7 114 -93 235 -192 121 -98 238 -194 261 -212 l41
-33 0 1045 c-1 575 2 1047 4 1049 3 3 38 8 79 11 41 4 86 8 100 10 14 2 66 7
115 10 50 3 106 8 125 11 19 2 69 6 110 9 41 3 93 7 115 10 22 2 72 6 110 10
39 3 88 7 110 10 37 3 129 11 235 20 25 2 79 7 120 11 41 4 91 8 110 9 19 1
69 6 110 9 109 10 157 15 230 21 36 3 90 7 120 10 63 6 123 11 230 20 41 4 89
8 105 10 17 2 66 7 110 10 44 3 98 8 120 10 22 3 70 7 108 10 77 6 186 15 237
20 19 2 73 7 120 11 47 4 96 8 110 10 14 1 40 2 58 3 l32 1 0 2855 0 2855 -41
-3 c-22 -1 -41 -3 -42 -4z"/>
</g>
</svg>
